<svg version="1.2" xmlns="http://www.w3.org/2000/svg" viewBox="0 0 3000 3000" width="3000" height="3000">
	<style>
		.s0 { fill: #e67e22 } 
		.s1 { fill: #000000 } 
		.s2 { fill: #fff000 } 
		.s3 { fill: #feffff } 
	</style>
	<path id="Path 0" fill-rule="evenodd" class="s0" d="m661.88 7.66c3.56-0.02 15.74 5.65 27.06 12.61 11.33 6.95 39.14 26.21 61.8 42.8 22.66 16.59 46.49 34.14 52.97 39 6.47 4.87 23.69 17.65 38.25 28.42 14.57 10.77 37.08 28.78 50.03 40.03 12.94 11.25 57.81 53.04 99.71 92.86 41.89 39.83 113.26 110.15 158.59 156.28 45.34 46.13 84.88 87.84 87.88 92.69 2.99 4.86 5.42 13.47 5.39 19.13-0.03 5.67-2.49 15.6-5.47 22.07-3.82 8.3-119.87 125.85-393.63 398.73-213.52 212.82-398.09 394.5-410.17 403.73-12.31 9.4-28.42 18.76-36.67 21.3-8.09 2.49-19.01 4.54-24.27 4.56-5.26 0.02-15.86-2.33-23.54-5.23-7.69-2.89-19.05-9.18-25.24-13.97-6.19-4.8-14.01-14.68-17.39-21.96-4.94-10.7-5.86-17.2-4.77-33.84 0.94-14.33 3.21-23.29 7.44-29.43 3.34-4.86 97.7-99.53 413.31-411.97l-13.01-26.48c-7.16-14.57-16.46-37.08-20.66-50.03-4.21-12.95-14.33-50.02-37.35-141.24l-0.67-313.4c-0.37-172.36 0.37-316.37 1.64-320.01 1.44-4.13 4.74-6.63 8.77-6.65zm143.58 386.1c-0.15 44.19 0.72 148.84 1.93 232.57l2.2 152.23c150.52-149.46 206.8-204.77 222.17-219.35l27.96-26.5c-63.47-59.11-93.93-86.91-108.63-99.91-14.7-13.01-48.58-41.5-75.29-63.32-26.7-21.82-53.39-43.36-59.31-47.87l-10.76-8.18zm1529.16-386.1c4.72 0.02 7.26 2.35 8.83 8.12 1.21 4.45 2.15 149.78 1.94 637.81l-12.16 42.67c-6.7 23.47-16.5 58.56-21.78 77.98-5.97 21.94-14.96 45.62-37.89 89.75l203.48 202.31c111.92 111.27 207.28 208.26 211.92 215.55 6.07 9.54 8.42 16.94 8.42 26.48-0.01 7.28-2.34 19.78-5.19 27.77-3.41 9.55-9.22 17.88-16.96 24.35-6.47 5.41-16.4 11.96-22.07 14.55-5.66 2.59-16.92 5.34-25.01 6.11-10.1 0.96-19.33-0.34-29.43-4.12-8.09-3.04-19.07-8.8-24.4-12.81-5.33-4.01-18.57-14.73-29.42-23.82-10.86-9.09-100.52-97.22-199.24-195.83-98.73-98.61-255.02-256.03-347.32-349.83-92.3-93.79-184.33-187.49-204.51-208.21-20.19-20.73-37.68-39.26-38.86-41.2-1.19-1.93-2.18-8.15-2.2-13.82-0.02-5.66 2.43-14.27 5.44-19.12 3-4.86 42.54-46.57 87.84-92.7 45.31-46.12 116.01-115.75 157.1-154.72 41.1-38.98 85.98-80.74 99.74-92.81 13.75-12.06 35.6-29.74 48.55-39.28 12.95-9.54 32.81-24.19 44.14-32.56 11.33-8.36 35.83-26.46 54.44-40.22 18.61-13.75 43.77-31.17 55.91-38.71 12.14-7.54 25.05-13.7 28.69-13.69zm-166.4 322.97c-11.48 9.31-36.51 29.69-55.61 45.29-19.1 15.59-48.64 40.6-65.63 55.58-17 14.97-49.11 44.25-71.36 65.07l-40.46 37.85c12.54 7.72 68.26 61.68 131.91 124.89 63.65 63.21 116.62 115.26 117.7 115.67 1.09 0.41 3.08-88.31 4.42-197.15 1.34-108.85 1.87-212.8 1.17-231.01l-1.27-33.12zm-1186.33 1422.04c1.54 0 117.67 115.27 258.07 256.14 140.4 140.88 256.94 255.75 258.97 255.28 2.03-0.48 77.88-75.02 168.55-165.66 90.68-90.63 199.58-199.75 242.02-242.48 42.44-42.73 83.49-83.78 91.23-91.22 9.22-8.86 15.04-12.51 16.89-10.59 1.67 1.75 2.94 47.12 3.44 220.7l-450.78 450.23-0.12 506.13-27.16 22.81c-14.94 12.55-32.09 26.45-49.06 38.99l-11.12-8.64c-6.12-4.75-21.39-16.99-56.74-45.8l0.06-513.49-217.04-216.29c-119.38-118.95-221.02-220.8-234.71-236.38l0.41-107.22c0.22-58.97 1.28-108.4 2.35-109.86 1.07-1.46 3.2-2.65 4.74-2.65zm456.7-1276.61c9.98-0.35 15.37 0.98 18.84 4.66 4.49 4.75 4.72 29.23 2.91 315.59-1.08 170.75-2.86 326.34-3.96 345.77-1.75 30.91-2.84 36.31-8.79 43.4-3.74 4.45-9.77 8.08-13.41 8.07-4.62-0.02-24.64-17.6-125.69-116.21l-0.05-289.12c-0.05-253.12 0.49-289.66 4.35-293.53 2.43-2.42 10.71-5.62 18.39-7.1 7.69-1.49 26.56-4.15 41.94-5.91 15.37-1.77 33.25-3.65 39.72-4.17 6.48-0.52 18.06-1.18 25.75-1.45zm131.5 0.8c15.48 1.06 43.37 3.97 61.98 6.47 18.61 2.51 37.15 5.86 41.2 7.45 4.04 1.59 8.33 4.45 9.52 6.35 1.18 1.89 2.2 133.22 2.33 580.21l-59.63 58.11c-41.7 40.64-61.62 58.12-66.25 58.12-3.64 0-9.68-3.64-13.41-8.09-5.95-7.09-7.04-12.48-8.79-43.4-1.09-19.43-2.98-175.07-4.19-345.88-2.16-304.05-2.09-310.68 3.45-315.91 4.98-4.71 9.02-5.12 33.79-3.43zm-360.48 235.04c2.15 0.71 3.35 49.82 3.83 156.75 0.54 121.14-0.11 156.2-2.94 157.88-2 1.19-69.85 2.24-150.77 2.34-130.62 0.16-147.63-0.35-151.55-4.49-3.97-4.2 0.15-9.29 41.2-50.85 25.08-25.4 55.54-56.14 67.68-68.3 12.14-12.16 59.72-60.87 105.74-108.24 46.02-47.37 85.09-85.66 86.81-85.09zm569.35-0.98c0.94-0.04 38.73 38.03 83.98 84.6 45.24 46.56 92.91 95.28 105.93 108.27 13.02 12.98 43.87 44.43 68.55 69.88 38.18 39.38 44.33 46.96 41.2 50.83-3.23 3.99-21.52 4.53-150.08 4.41-80.52-0.07-148.38-0.79-150.81-1.6-3.84-1.28-4.48-21.65-4.9-156.94-0.27-85.51 0.61-156.35 1.96-157.43 1.35-1.08 3.22-1.99 4.17-2.02zm-803.1 395.46c186.73 0.73 214.99 1.43 226.58 5.55 7.29 2.59 24.5 9.46 38.26 15.27 13.76 5.8 35.37 16.82 48.03 24.48 12.65 7.67 32.43 22.54 43.94 33.06 11.51 10.52 29.38 29.06 39.71 41.2 12.45 14.62 25.04 34.48 37.33 58.85 10.2 20.23 22.66 49.37 27.69 64.74 5.03 15.38 11.88 39.21 15.22 52.97 5.59 23.05 6.28 38.62 8.71 198.63 1.45 95.49 1.58 175.6 0.28 178.03-1.3 2.42-10.81 8.66-21.15 13.86-10.33 5.19-38.65 18.68-62.93 29.97-24.28 11.29-45.79 19.95-47.82 19.25-2.02-0.71-4.29-4.93-5.03-9.38-0.75-4.45-2.79-65.03-4.54-134.63-1.75-69.59-5.15-151.03-7.55-180.97-2.4-29.94-6.49-65.03-9.09-77.98-2.59-12.95-7.9-32.81-11.8-44.14-3.89-11.33-10.53-26.56-14.75-33.84-4.22-7.28-13.95-21.85-21.62-32.37-7.67-10.52-25.69-30.21-40.04-43.77-14.35-13.55-34.03-29.06-43.74-34.46-9.71-5.41-25.6-12.94-35.32-16.76-9.71-3.81-25.6-8.45-35.31-10.31-9.71-1.85-23.61-4.04-30.89-4.87-7.29-0.82-96.01-3-197.16-4.84-101.15-1.84-186.23-4.53-189.07-5.96-2.83-1.44-5.2-5.6-5.26-9.24-0.06-3.64 4.24-12.79 9.56-20.32 5.33-7.54 17.13-22.77 26.24-33.84 9.1-11.08 19.7-22.95 23.54-26.39 3.84-3.43 10.96-7.68 15.81-9.44 6.12-2.21 74.25-2.93 222.17-2.35zm1056.41-0.71c141.23-0.34 198.55 0.47 205.98 2.92 5.67 1.87 13.45 6.2 17.29 9.62 3.84 3.41 14.43 15.27 23.54 26.35 9.1 11.07 20.91 26.3 26.23 33.84 5.33 7.53 9.63 16.68 9.57 20.32-0.07 3.64-2.44 7.8-5.27 9.23-2.83 1.44-87.91 4.13-189.06 5.98-101.16 1.85-189.88 4.07-197.16 4.94-7.28 0.87-20.52 2.92-29.43 4.56-8.9 1.64-26.77 7.17-39.72 12.29-12.95 5.12-31.49 14.47-41.2 20.79-9.71 6.32-26.09 19.57-36.41 29.45-10.32 9.88-26.31 27.89-35.55 40.03-9.24 12.14-20.28 28.03-24.54 35.31-4.26 7.28-11.12 23.17-15.26 35.31-4.13 12.14-9.5 32.67-11.93 45.61-2.43 12.95-5.67 45.39-7.19 72.1-1.53 26.7-4.14 77.02-5.79 111.82-1.65 34.8-3.76 93.72-4.68 130.95-0.93 37.22-2.28 71.32-3 75.77-0.72 4.45-2.96 8.67-4.99 9.38-2.02 0.7-23.54-7.96-47.81-19.25-24.28-11.29-52.6-24.78-62.94-29.97-10.33-5.2-19.84-11.44-21.13-13.86-1.3-2.43-1.16-82.54 0.29-178.03 2.44-159.84 3.13-175.6 8.7-198.63 3.33-13.76 9.5-35.61 13.7-48.55 4.2-12.95 16.57-42.08 27.48-64.74 16.59-34.44 23.69-45.55 43.23-67.68 12.85-14.57 32.57-34.24 43.8-43.71 11.24-9.48 30.36-23.05 42.5-30.17 12.14-7.12 35.97-18.45 52.97-25.18 20.11-7.97 38.08-12.95 51.49-14.28 11.33-1.12 108.66-2.25 216.29-2.52zm-1290.75 405.68c1.84-0.02 32.78 29.44 134.19 130.97l0.12 388.43 447.23 447.28 0.15 179.51c0.13 158.42-0.39 179.93-4.4 183.17-3.83 3.1-9.46-0.15-35.73-20.59-17.15-13.36-38.67-30.05-47.82-37.11-9.15-7.05-23.91-18.84-32.82-26.19-8.9-7.36-18.55-16.15-21.46-19.55-4.82-5.64-5.26-13.73-5.04-182.73l-447.39-447.28 0.8-293.08c0.66-242.11 1.5-293.92 4.81-297.94 2.2-2.67 5.51-4.88 7.36-4.89zm1515.86 0.67c4.89 0.69 6.21 3.83 7.77 18.48 1.04 9.71 2.01 143.46 2.43 576.76l-90.44 90.92c-49.74 50.01-150.36 150.64-356.76 356.36l0.02 166.26-13.98 12.99c-7.69 7.15-27.88 24.4-44.87 38.35-17 13.94-41.5 33.98-54.44 44.53-12.95 10.55-24.87 18.68-26.49 18.06-1.9-0.73-3.16-64.17-4.19-359.64l447.8-447.28-3.68-384.01 65.47-66.31c47.77-48.37 67.07-66.08 71.36-65.47z"/>
	<path id="Path 0" class="s1" d="m1474 1902.16c-3.03 0.51-12.03 2.28-20 3.94-7.98 1.66-18.78 4.16-24 5.55-5.23 1.39-11.7 3.5-14.4 4.69-2.91 1.28-5.24 3.07-5.75 4.41-0.61 1.62-0.11 4.15 1.79 9 1.45 3.71 3.54 8.55 4.64 10.75 1.09 2.2 5.37 9.62 9.49 16.5 4.12 6.87 11.21 17.45 15.74 23.5 4.53 6.05 11.78 14.2 16.11 18.11 4.34 3.92 11.82 10.1 16.63 13.75 4.81 3.65 10.66 7.55 13 8.65 2.9 1.38 6.31 2.02 10.75 2.02 4.44 0 7.85-0.64 10.75-2.02 2.34-1.1 8.19-5 13-8.65 4.81-3.65 12.29-9.83 16.63-13.75 4.33-3.91 11.58-12.06 16.11-18.11 4.53-6.05 11.75-16.85 16.05-24 4.29-7.15 9.25-16.15 11.01-20 1.76-3.85 3.67-8.8 4.26-11 0.58-2.2 0.75-4.63 0.37-5.39-0.37-0.77-2.26-2.18-4.18-3.14-1.93-0.96-6.88-2.75-11-3.97-4.13-1.22-14.48-3.75-23-5.63-8.53-1.87-19.66-4.07-24.75-4.89-5.89-0.94-15.52-1.44-26.5-1.36-9.49 0.06-19.73 0.53-22.75 1.04z"/>
	<path id="Path 2" class="s2" d="m1062.19 1265.18c-0.01 3.22 9.59 22.74 21.34 43.36 11.75 20.63 26 42.46 31.67 48.51 5.67 6.05 18.74 15.38 29.06 20.73 12.43 6.45 31.8 10.64 57.45 12.44 34.78 2.43 38.7 1.87 38.68-5.5-0.02-4.51-3.46-15.06-7.64-23.44-4.19-8.38-15.26-25.45-24.61-37.94-10.27-13.71-25.83-27.18-39.27-33.99-12.25-6.2-37.56-15.5-56.25-20.67-18.7-5.16-37.68-9.38-42.19-9.37-4.52 0.01-8.22 2.65-8.24 5.87zm815.7 5.22c-19.34 5.82-43.59 15.01-53.91 20.42-10.31 5.41-26.4 20.04-35.75 32.53-9.35 12.48-20.43 29.55-24.61 37.93-4.19 8.38-7.62 18.93-7.64 23.44-0.03 7.37 3.9 7.93 38.67 5.5 25.66-1.8 45.03-5.99 57.46-12.44 10.31-5.35 23.39-14.68 29.06-20.73 5.66-6.05 19.92-27.88 31.67-48.51 11.75-20.62 21.35-40.14 21.33-43.36-0.01-3.22-4.77-5.75-10.57-5.61-5.8 0.14-26.37 5.01-45.71 10.83z"/>
	<path id="Path 0" fill-rule="evenodd" class="s3" d="m533.02 1280.92l269.48 0.7 25 2.72c13.75 1.5 29.5 3.41 35 4.23 5.5 0.83 13.6 2.42 18 3.53 4.4 1.11 16.55 4.72 27 8.02 10.45 3.31 21.25 6.71 24 7.57 2.75 0.86 10.4 3.71 17 6.33 6.6 2.62 21.9 9.14 34 14.48 12.1 5.34 28.07 12.8 35.5 16.58 7.42 3.77 19.25 10.36 26.28 14.64 7.03 4.28 25.15 15.88 40.26 25.78 15.11 9.9 33.66 22.3 41.22 27.57 7.56 5.26 20.71 14.45 29.24 20.43 8.52 5.98 18.2 12.89 21.5 15.37 3.3 2.47 10.27 8.21 15.5 12.75 5.22 4.53 17.93 17.16 28.24 28.06 10.31 10.9 21.25 22.97 24.32 26.82 3.07 3.85 11.15 15.32 17.95 25.5 6.81 10.17 14 22.1 16 26.5 1.99 4.4 4.52 11.6 5.63 16 1.1 4.4 2.62 12.72 3.37 18.5 0.79 6.12 1.8 30.09 2.41 57.5 0.57 25.85 1.53 60.72 2.12 77.5 0.59 16.77 1.43 42.42 2.66 83.5l5.03 10c2.76 5.5 8.5 16.07 12.75 23.5 4.25 7.42 8.69 14.52 9.87 15.78 1.18 1.25 2.6 2.24 3.15 2.21 0.55-0.04 4.6-3.95 9-8.69 4.4-4.74 10.47-10.43 13.5-12.65 3.02-2.21 9.1-5.81 13.5-7.99 4.4-2.19 12.72-5.75 18.5-7.91 5.77-2.17 16.57-6.1 24-8.74 7.42-2.63 18-5.72 23.5-6.85 5.5-1.14 13.82-2.65 18.5-3.36 5.99-0.92 21.51-1.3 52.5-1.3 31.8 0 46.5 0.37 53 1.35 4.95 0.74 13.5 2.4 19 3.68 5.5 1.29 19.9 5.9 32 10.26 12.1 4.35 25.37 9.38 29.5 11.18 4.12 1.8 10.42 5.19 14 7.53 3.57 2.35 10.66 8.59 15.75 13.88 5.09 5.29 9.7 9.62 10.25 9.62 0.55 0 2.09-1.46 3.43-3.25 1.33-1.79 5.41-8.43 9.06-14.75 3.64-6.33 9.12-16.45 17.69-33.5l0.86-27c0.47-14.85 1.34-41.85 1.94-60 0.59-18.15 1.53-53.03 2.08-77.5 0.65-28.84 1.53-48.37 2.52-55.5 0.83-6.05 2.45-14.38 3.6-18.5 1.14-4.13 3.51-10.65 5.27-14.5 1.75-3.85 5.62-10.83 8.59-15.5 2.97-4.68 9.82-14.8 15.22-22.5 5.39-7.7 13.8-18.5 18.68-24 4.88-5.5 16.9-18.11 26.72-28.03 9.81-9.91 21.58-20.94 26.16-24.5 4.58-3.56 21-15.4 36.5-26.32 15.5-10.92 34.15-23.74 41.46-28.5 7.3-4.76 22.38-14.67 33.5-22.03 11.12-7.35 25.62-16.52 32.22-20.36 6.6-3.85 17.17-9.59 23.5-12.76 6.32-3.17 21.4-10.13 33.5-15.48 12.1-5.34 26.95-11.72 33-14.17 6.05-2.45 23.15-8.28 38-12.96 14.85-4.68 30.82-9.35 35.5-10.38 4.67-1.03 15.92-2.79 25-3.92 9.07-1.12 24.37-2.82 34-3.77 15.44-1.53 33.21-1.77 285-2.32l26.13 25.75c14.37 14.16 27.8 28.22 29.85 31.25 2.04 3.02 5.09 9.1 6.77 13.5 1.68 4.4 4 12.39 5.15 17.75 1.39 6.45 2.1 13.39 2.11 20.5 0.01 5.91-0.65 14.57-1.45 19.25-0.8 4.67-2.87 12.55-4.6 17.5-1.72 4.95-4.93 12.37-7.13 16.5-2.21 4.12-5.66 9.52-7.67 11.99-2.01 2.47-5.69 6.45-8.16 8.84-2.48 2.39-5.85 5.07-7.5 5.95-2.61 1.39-11.02 1.7-64 2.37-33.55 0.43-76.53 1.24-95.5 1.81-18.98 0.56-44.18 1.93-56 3.04-11.83 1.11-29.83 3.16-40 4.55-10.18 1.39-23.45 3.42-29.5 4.53-6.05 1.1-16.4 3.14-23 4.53-6.6 1.39-16.95 3.84-23 5.44-6.05 1.6-15.5 4.43-21 6.3-5.5 1.86-15.63 5.74-22.5 8.61-6.88 2.87-19.48 8.69-28 12.95-8.53 4.25-23.6 12.41-33.5 18.13-9.9 5.72-27.9 17.02-40 25.11-12.1 8.09-26.57 18.23-32.15 22.53-5.58 4.3-13.68 10.71-18 14.25-4.32 3.54-13.25 11.17-19.85 16.96-6.6 5.78-22.16 20.66-34.58 33.06-12.43 12.4-27.67 28.17-33.88 35.05-6.21 6.87-16.53 19.02-22.93 27-6.41 7.97-14.54 19.22-18.08 25-3.54 5.77-9.96 17.02-14.27 25-4.32 7.97-13.4 25.52-20.2 39-6.8 13.47-17.84 34.85-24.55 47.5-6.71 12.65-17.02 33.12-22.91 45.5-5.89 12.37-13.57 27.45-17.05 33.5-3.49 6.05-9.37 15.5-13.08 21-3.7 5.5-8.93 12.98-11.6 16.63-2.68 3.64-10.05 12.36-16.37 19.37-6.33 7.01-19.39 20.23-29.02 29.37-9.64 9.15-21.56 20.24-26.5 24.65-4.94 4.42-12.58 10.75-16.98 14.08-4.4 3.33-11.38 8.3-15.5 11.05-4.13 2.75-11.78 7.3-17 10.11-5.23 2.8-15.13 7.31-22 10-6.88 2.7-15.65 5.85-19.5 7.01-3.85 1.16-11.73 3.13-17.5 4.38-9.56 2.07-13.15 2.28-40 2.31-24.41 0.03-31.05-0.28-38.5-1.75-4.95-0.99-13.05-2.97-18-4.41-4.95-1.43-14.63-4.82-21.5-7.52-6.88-2.71-16.78-7.22-22-10.02-5.23-2.81-13.33-7.67-18-10.8-4.68-3.14-12.55-8.84-17.5-12.68-4.95-3.84-12.6-10.3-17-14.35-4.4-4.06-16.27-15.27-26.38-24.91-10.11-9.63-22.74-22.47-28.06-28.52-5.33-6.05-11.73-13.7-14.23-17-2.5-3.3-8.12-11.4-12.48-18-4.36-6.6-10.48-16.5-13.59-22-3.11-5.5-9.95-19-15.2-30-5.24-11-12.95-26.53-17.12-34.5-4.18-7.98-15.7-30.25-25.61-49.5-9.91-19.25-20.75-40.18-24.1-46.5-3.34-6.33-9.69-17.58-14.11-25-4.42-7.43-12.44-19.01-17.83-25.75-5.38-6.74-15.3-18.44-22.04-26-6.74-7.56-22.83-24.34-35.75-37.29-12.93-12.95-29.35-28.65-36.5-34.9-7.15-6.24-19.3-16.37-27-22.51-7.7-6.13-17.83-13.87-22.5-17.2-4.68-3.33-14.58-10.09-22-15.03-7.43-4.94-20.7-13.26-29.5-18.49-8.8-5.23-21.85-12.65-29-16.49-7.15-3.83-17.95-9.26-24-12.05-6.05-2.79-14.83-6.65-19.5-8.58-4.68-1.93-13-5.07-18.5-6.98-5.5-1.92-14.28-4.65-19.5-6.07-5.23-1.42-14.9-3.76-21.5-5.19-6.6-1.44-16.73-3.49-22.5-4.57-5.78-1.08-19.73-3.27-31-4.87-11.28-1.6-30.4-3.81-42.5-4.91-12.1-1.1-32.35-2.47-45-3.03-12.65-0.56-51.13-1.28-85.5-1.6-34.38-0.32-67.23-0.83-73-1.14-5.78-0.31-11.4-1.04-12.5-1.62-1.1-0.58-3.5-2.22-5.32-3.64-1.83-1.43-6.05-5.97-9.38-10.09-3.33-4.13-8.23-11.99-10.89-17.5-2.67-5.5-6.02-14.28-7.46-19.5-2.03-7.39-2.74-12.72-3.17-24-0.43-11.38-0.18-16.33 1.15-23 0.94-4.68 3.05-12.55 4.7-17.5 1.64-4.95 4.4-11.25 6.11-14 1.72-2.75 10.8-12.81 20.19-22.35 9.39-9.54 21.91-21.82 27.83-27.29zm901.98 623.2c-5.77 1.17-13.42 3.22-17 4.55-3.57 1.33-8.19 3.52-10.25 4.87-3.35 2.2-3.75 2.91-3.77 6.71-0.01 2.34 0.87 7.18 1.95 10.75 1.08 3.58 4.59 11.68 7.8 18 3.21 6.33 7.88 14.65 10.38 18.5 2.5 3.85 7.44 10.6 10.97 14.99 3.53 4.4 9.8 11.56 13.92 15.91 4.13 4.36 10.88 10.6 15 13.87 4.13 3.27 10.65 7.45 14.5 9.28 3.85 1.84 9.7 3.79 13 4.34q6 1 12.5 0c3.58-0.55 9.65-2.5 13.5-4.34 3.85-1.83 10.38-6.01 14.5-9.28 4.13-3.27 10.88-9.51 15-13.87 4.13-4.35 10.39-11.51 13.92-15.91 3.53-4.39 8.47-11.14 10.97-14.99 2.5-3.85 7.18-12.17 10.38-18.5 3.21-6.32 6.72-14.42 7.8-18 1.09-3.57 1.96-8.41 1.95-10.75-0.02-3.66-0.47-4.55-3.27-6.45-1.79-1.22-5.95-3.29-9.25-4.61-3.3-1.32-11.17-3.49-17.5-4.82-6.32-1.33-19.15-3.54-28.5-4.89-13.92-2.02-20.62-2.45-37-2.37-15.74 0.07-23.3 0.6-35.5 2.48-8.52 1.32-20.22 3.36-26 4.53z"/>
</svg>